<?xml version="1.0" encoding="UTF-8" standalone="no"?>
<!-- Created with Inkscape (http://www.inkscape.org/) -->

<svg width="512" height="512" viewBox="0 0 512 512" version="1.1" id="svg1" xml:space="preserve"
  inkscape:version="1.4.2 (ebf0e940, 2025-05-08)" sodipodi:docname="icon.svg" inkscape:export-filename="icon.png"
  inkscape:export-xdpi="96" inkscape:export-ydpi="96" xmlns:inkscape="http://www.inkscape.org/namespaces/inkscape"
  xmlns:sodipodi="http://sodipodi.sourceforge.net/DTD/sodipodi-0.dtd" xmlns="http://www.w3.org/2000/svg"
  xmlns:svg="http://www.w3.org/2000/svg">
  <sodipodi:namedview id="namedview1" pagecolor="#ffffff" bordercolor="#000000" borderopacity="0.25"
    inkscape:showpageshadow="2" inkscape:pageopacity="0.0" inkscape:pagecheckerboard="0" inkscape:deskcolor="#d1d1d1"
    inkscape:document-units="px" inkscape:zoom="0.28519053" inkscape:cx="66.622128" inkscape:cy="-63.115701"
    inkscape:window-width="2560" inkscape:window-height="1381" inkscape:window-x="2560" inkscape:window-y="31"
    inkscape:window-maximized="0" inkscape:current-layer="layer1" />
  <defs id="defs1" />
  <g inkscape:label="Layer 1" inkscape:groupmode="layer" id="layer1">
    <path
      d="m 286.83984,115.61133 a 10.458102,10.458102 0 0 0 -1.45898,0.14062 10.458102,10.458102 0 0 0 -8.73242,10.3125 v 36.77539 a 10.458102,10.458102 0 0 0 5.01367,8.92774 l 5.375,3.27929 c 9.15944,-13.34913 19.16696,-27.79473 30.01953,-43.33203 l -24.60352,-14.63671 a 10.458102,10.458102 0 0 0 -5.61328,-1.4668 z m 70.06446,39.81054 c -8.32339,17.11798 -16.18587,33.12616 -23.52149,47.89454 l 86.68946,52.8789 -138.3125,82.29688 a 10.458102,10.458102 0 0 0 -5.11133,8.98633 v 37.54101 a 10.458102,10.458102 0 0 0 15.83984,8.96484 L 483.51367,279.31836 a 10.458102,10.458102 0 0 0 5.07422,-8.96484 v -30.64454 a 10.458102,10.458102 0 0 0 -5.10937,-8.98828 z"
      style="font-weight:bold;font-size:500.159px;line-height:1.7;font-family:Monospace;-inkscape-font-specification:'Monospace Bold';text-align:center;letter-spacing:0px;word-spacing:0px;baseline-shift:baseline;text-anchor:middle;display:inline;overflow:visible;vector-effect:none;stroke-linecap:round;stroke-linejoin:round;paint-order:fill markers stroke;enable-background:accumulate;stop-color:#000000;stop-opacity:1;fill:#dd7e27;fill-opacity:1"
      id="path37" />
    <path
      d="m 225.16016,116.52734 a 10.458102,10.458102 0 0 0 -5.61329,1.4668 L 28.521484,231.63672 a 10.458102,10.458102 0 0 0 -5.109375,8.98828 v 30.64453 a 10.458102,10.458102 0 0 0 5.074219,8.9668 l 135.408202,81.28125 c 4.60477,-2.72564 9.69295,-4.60456 15.05274,-5.48242 2.92549,-0.49334 5.86666,-0.65322 8.77539,-0.52344 -0.72641,-0.0325 -1.45598,-0.0477 -2.18555,-0.043 0.56991,-1.36048 1.30819,-3.04792 2.23242,-5.12109 2.22181,-4.98385 5.49897,-12.12326 9.7168,-21.16602 1.19452,-2.56404 2.31651,-4.97624 3.37304,-7.25586 L 91.927734,257.11133 230.33789,172.68359 a 10.458102,10.458102 0 0 0 5.01367,-8.92773 v -36.77539 a 10.458102,10.458102 0 0 0 -8.73242,-10.3125 10.458102,10.458102 0 0 0 -1.45898,-0.14063 z m -28.65625,235.83594 c -0.004,0.002 -0.01,0.005 -0.0117,0.006 h -0.002 v 0.002 h -0.002 v 0.002 l -0.002,0.002 v 0.002 l -0.002,0.002 v 0.002 0.002 0.002 l 0.002,0.002 v 0.002 c 0.004,0.0187 0.0233,0.0464 0.0293,0.0606 l 0.002,0.002 v 0.002 0.002 c 0.0175,0.004 0.0118,0.002 0.0312,0.006 0.11755,0.0252 0.32723,0.0628 0.49804,0.0957 -0.35778,-0.15876 -0.49501,-0.19936 -0.54101,-0.19336 z m 38.84765,13.81055 c -2.75502,3.76014 -5.01973,6.81449 -6.82031,9.19726 -1.44402,1.91094 -2.5746,3.37494 -3.50195,4.51758 -0.13462,-0.27618 -0.31447,-0.53291 -0.45508,-0.80664 2.61128,5.08377 4.21516,10.58306 4.70703,16.3457 a 10.458102,10.458102 0 0 0 6.07031,-9.49218 z"
      style="font-weight:bold;font-size:500.159px;line-height:1.7;font-family:Monospace;-inkscape-font-specification:'Monospace Bold';text-align:center;letter-spacing:0px;word-spacing:0px;baseline-shift:baseline;text-anchor:middle;display:inline;overflow:visible;vector-effect:none;stroke-linecap:round;stroke-linejoin:round;paint-order:fill markers stroke;enable-background:accumulate;stop-color:#000000;stop-opacity:1;fill:#dd7e27;fill-opacity:1"
      id="path36" />
    <g transform="matrix(0.03185219,0,0,-0.03185219,105.48243,442.1843)" fill="#000000" stroke="none" id="g3"
      style="fill:#d127dd;fill-opacity:1">
      <path
        d="m 9186,12779 c -28,-22 -678,-928 -1438,-2004 C 6046,8364 4869,6631 4233,5600 c -91,-148 -263,-442 -263,-450 0,-4 48,-24 108,-46 59,-21 190,-80 292,-131 267,-134 433,-241 688,-446 68,-54 125,-97 126,-95 9,10 107,177 193,328 656,1146 2013,3874 3700,7440 124,261 227,492 230,512 4,30 1,41 -20,62 -32,31 -65,33 -101,5 z"
        id="path1" style="fill:#d127dd;fill-opacity:1" />
      <path
        d="m 3796,4802 c -154,-368 -309,-713 -623,-1387 -264,-566 -410,-893 -401,-900 2,-1 32,-8 68,-14 195,-38 431,-178 561,-335 28,-33 55,-62 60,-64 12,-5 199,242 580,768 400,552 642,878 839,1130 176,225 171,216 144,238 -12,9 -66,53 -120,98 -304,248 -652,449 -963,555 -47,16 -87,29 -90,29 -3,0 -28,-53 -55,-118 z"
        id="path2" style="fill:#d127dd;fill-opacity:1" />
      <path
        d="m 2358,2395 c -270,-44 -509,-190 -680,-415 -62,-81 -140,-241 -167,-340 C 1419,1300 1373,1164 1291,996 1214,839 1127,717 1015,604 805,393 555,268 165,181 66,158 31,146 18,130 -8,98 -5,54 26,23 L 52,-3 534,3 c 264,4 560,11 656,17 1117,63 1758,256 2118,635 177,186 259,384 269,650 11,288 -65,511 -248,733 -126,153 -342,287 -544,338 -127,31 -303,40 -427,19 z"
        id="path3" style="fill:#d127dd;fill-opacity:1" />
    </g>
  </g>
</svg>